<mxfile host="65bd71144e">
    <diagram id="1N_wn9JSR5_6MwmpqMDd" name="Page-1">
        <mxGraphModel dx="540" dy="686" grid="1" gridSize="10" guides="1" tooltips="1" connect="1" arrows="1" fold="1" page="1" pageScale="1" pageWidth="850" pageHeight="1100" math="0" shadow="0">
            <root>
                <mxCell id="0"/>
                <mxCell id="1" parent="0"/>
                <mxCell id="HpQwrMI44nHiOKP18Tkk-9" value="" style="endArrow=none;html=1;strokeWidth=2.5;curved=1;endFill=0;shadow=0;sketch=0;" parent="1" edge="1">
                    <mxGeometry width="50" height="50" relative="1" as="geometry">
                        <mxPoint x="103" y="130" as="sourcePoint"/>
                        <mxPoint x="288" y="210" as="targetPoint"/>
                        <Array as="points">
                            <mxPoint x="133" y="60"/>
                            <mxPoint x="183" y="190"/>
                            <mxPoint x="258" y="270"/>
                            <mxPoint x="288" y="210"/>
                        </Array>
                    </mxGeometry>
                </mxCell>
                <mxCell id="HpQwrMI44nHiOKP18Tkk-10" value="" style="endArrow=none;html=1;shadow=0;strokeWidth=1;dashed=1;" parent="1" edge="1">
                    <mxGeometry width="50" height="50" relative="1" as="geometry">
                        <mxPoint x="138" y="160" as="sourcePoint"/>
                        <mxPoint x="174" y="160" as="targetPoint"/>
                    </mxGeometry>
                </mxCell>
                <mxCell id="HpQwrMI44nHiOKP18Tkk-11" value="" style="endArrow=none;html=1;shadow=0;strokeWidth=1;dashed=1;" parent="1" edge="1">
                    <mxGeometry width="50" height="50" relative="1" as="geometry">
                        <mxPoint x="138" y="210" as="sourcePoint"/>
                        <mxPoint x="204" y="210" as="targetPoint"/>
                    </mxGeometry>
                </mxCell>
                <mxCell id="HpQwrMI44nHiOKP18Tkk-12" value="" style="endArrow=oval;html=1;shadow=0;strokeWidth=1;endFill=1;" parent="1" edge="1">
                    <mxGeometry width="50" height="50" relative="1" as="geometry">
                        <mxPoint x="204" y="290" as="sourcePoint"/>
                        <mxPoint x="204" y="210" as="targetPoint"/>
                    </mxGeometry>
                </mxCell>
                <mxCell id="HpQwrMI44nHiOKP18Tkk-13" value="" style="endArrow=oval;html=1;shadow=0;strokeWidth=1;endFill=1;" parent="1" edge="1">
                    <mxGeometry width="50" height="50" relative="1" as="geometry">
                        <mxPoint x="174" y="290" as="sourcePoint"/>
                        <mxPoint x="174" y="160" as="targetPoint"/>
                    </mxGeometry>
                </mxCell>
                <mxCell id="HpQwrMI44nHiOKP18Tkk-14" value="entry = high" style="edgeLabel;html=1;align=center;verticalAlign=middle;resizable=0;points=[];fontFamily=Helvetica;fontSize=16;" parent="1" vertex="1" connectable="0">
                    <mxGeometry x="125" y="285" as="geometry"/>
                </mxCell>
                <mxCell id="HpQwrMI44nHiOKP18Tkk-15" value="exit = low" style="edgeLabel;html=1;align=center;verticalAlign=middle;resizable=0;points=[];fontFamily=Helvetica;fontSize=16;" parent="1" vertex="1" connectable="0">
                    <mxGeometry x="243" y="285" as="geometry">
                        <mxPoint y="-2" as="offset"/>
                    </mxGeometry>
                </mxCell>
                <mxCell id="HpQwrMI44nHiOKP18Tkk-16" value="short" style="edgeLabel;html=1;align=center;verticalAlign=middle;resizable=0;points=[];fontFamily=Helvetica;fontSize=16;" parent="1" vertex="1" connectable="0">
                    <mxGeometry x="265" y="120" as="geometry"/>
                </mxCell>
                <mxCell id="HpQwrMI44nHiOKP18Tkk-17" value="" style="endArrow=classic;startArrow=classic;html=1;shadow=0;strokeWidth=1;" parent="1" edge="1">
                    <mxGeometry width="50" height="50" relative="1" as="geometry">
                        <mxPoint x="162" y="208.5" as="sourcePoint"/>
                        <mxPoint x="162" y="159.5" as="targetPoint"/>
                    </mxGeometry>
                </mxCell>
                <mxCell id="HpQwrMI44nHiOKP18Tkk-18" value="high - low" style="edgeLabel;html=1;align=center;verticalAlign=middle;resizable=0;points=[];fontFamily=Helvetica;fontSize=16;" parent="1" vertex="1" connectable="0">
                    <mxGeometry x="120" y="184" as="geometry"/>
                </mxCell>
                <mxCell id="HpQwrMI44nHiOKP18Tkk-19" value="mae = 0" style="edgeLabel;html=1;align=center;verticalAlign=middle;resizable=0;points=[];fontFamily=Helvetica;fontSize=16;" parent="1" vertex="1" connectable="0">
                    <mxGeometry x="211" y="156" as="geometry"/>
                </mxCell>
                <mxCell id="HpQwrMI44nHiOKP18Tkk-20" value="mfe = 0" style="edgeLabel;html=1;align=center;verticalAlign=middle;resizable=0;points=[];fontFamily=Helvetica;fontSize=16;" parent="1" vertex="1" connectable="0">
                    <mxGeometry x="239" y="205" as="geometry"/>
                </mxCell>
            </root>
        </mxGraphModel>
    </diagram>
</mxfile>